# xmcd
# Copyright (C) 1995-1998 Ti Kan
#
# Track frame offsets:
#       150
#       9229
#       20088
#       36687
#       51727
#       65070
#       87566
#       104304
#       113946
#       141374
#       158610
#       170764
#       179464
#       193118
#       211726
#       238719
#       263195
#
# Disc length: 3746 seconds
#
# Revision: 0
# Processed by: cddbd v1.5.2PL0 Copyright (c) Steve Scherf et al.
# Submitted via: CD-Import v1.0
#
DISCID=030ea011
DTITLE=Various Artist - Musik Aus Winterthur
DYEAR=1900
DGENRE=
TTITLE0=Outlaw - Let It Be
TTITLE1=Buschmesser - Decision
TTITLE2=Fox And The Dusty Beat - End Of Ends
TTITLE3=Fox And The Dusty Beat - Psycho
TTITLE4=Sly - How Shot God?
TTITLE5=Swinging Zombies - Mathew
TTITLE6=Ccmp - Rectal Syringe
TTITLE7=Freakies - Should Have Known Better
TTITLE8=Sirenen
TTITLE9=Sirenen
TTITLE10=System - 3rd Generation
TTITLE11=System - Killing Another
TTITLE12=System - Silence
TTITLE13=Tell Yourself - Passover
TTITLE14=Tell Yourself - Water-Flowing-Dying
TTITLE15=Tropfnass - Süd-Nord
TTITLE16=Tropfnass - Bedrohig
EXTD=
EXTT0=
EXTT1=
EXTT2=
EXTT3=
EXTT4=
EXTT5=
EXTT6=
EXTT7=
EXTT8=
EXTT9=
EXTT10=
EXTT11=
EXTT12=
EXTT13=
EXTT14=
EXTT15=
EXTT16=
PLAYORDER=
